# File created by Blade
# Date/Time:  Tue Jan 27 20:02:37 2015
# Frame Rate: 120.000 fps
#------------------------------------------------------
:FULLY-SPECIFIED
:DEGREES
2639
root 7.414277 33.333897 5.069966 6.261646 -12.854143 -21.293863
Spine 3.608206 14.108474 12.044620
Head 7.738614 -9.687306 10.430544
LeftShoulder -14.591953 1.525549 29.922849
LeftArm -5.093669 -4.850771 -82.347939
LeftForeArm -19.910763 -0.000000 123.540075
LeftHand 10.638911 -0.000000 -24.355351
LeftHandThumb1 -26.253704 0.000000 33.147579
RightShoulder -18.474781 -19.308563 -20.431408
RightArm 7.212257 -11.902646 84.390302
RightForeArm -13.084779 -0.000000 6.555856
RightHand 19.491612 -0.000000 6.650163
RightHandThumb1 -24.326973 -0.000000 -32.862282
LeftUpLeg 7.727365 8.176928 10.499439
LeftLeg -4.787935 -0.000000 0.000000
LeftFoot -20.161564 24.007818 -15.561826
LeftToeBase 18.444006 -0.000000 -0.000000
RightUpLeg -8.881543 -35.432229 -34.597898
RightLeg 103.355996 -0.000000 -0.000000
RightFoot 27.394177 -29.177796 20.657748
RightToeBase 17.736309 -0.000000 -0.000000
2640
root 7.421848 33.334678 5.063091 6.323795 -13.164167 -21.348006
Spine 3.651943 14.208231 11.988402
Head 7.823810 -9.503814 10.370820
LeftShoulder -14.629777 1.629132 29.894702
LeftArm -5.063064 -4.922925 -82.414390
LeftForeArm -20.028427 0.000000 123.627926
LeftHand 10.654640 -0.000000 -24.483260
LeftHandThumb1 -26.253704 0.000000 33.147579
RightShoulder -18.441683 -19.266312 -20.454272
RightArm 7.252083 -11.903467 84.433645
RightForeArm -13.173790 -0.000000 6.650743
RightHand 19.451992 -0.000000 6.753666
RightHandThumb1 -24.326973 -0.000000 -32.862282
LeftUpLeg 7.788934 8.388551 10.513729
LeftLeg -4.827078 -0.000000 0.000000
LeftFoot -20.203162 24.031122 -15.686291
LeftToeBase 18.459199 -0.000000 -0.000000
RightUpLeg -9.310208 -36.049542 -34.194556
RightLeg 103.191465 -0.000000 -0.000000
RightFoot 27.254958 -29.259951 20.926126
RightToeBase 18.937606 -0.000000 -0.000000
2641
root 7.429460 33.333728 5.055098 6.375968 -13.407514 -21.373261
Spine 3.688983 14.271614 11.908608
Head 7.876636 -9.336821 10.292450
LeftShoulder -14.606258 1.697310 29.866185
LeftArm -5.038407 -4.966019 -82.439805
LeftForeArm -20.046624 -0.000000 123.737670
LeftHand 10.691582 -0.000000 -24.525503
LeftHandThumb1 -26.253704 0.000000 33.147579
RightShoulder -18.427496 -19.206793 -20.482310
RightArm 7.273818 -11.929327 84.491021
RightForeArm -13.059789 0.000000 6.685404
RightHand 19.547715 -0.000000 6.627641
RightHandThumb1 -24.326973 -0.000000 -32.862282
LeftUpLeg 7.815967 8.569858 10.505948
LeftLeg -4.840469 -0.000000 0.000000
LeftFoot -20.249542 24.024427 -15.797197
LeftToeBase 18.568636 -0.000000 -0.000000
RightUpLeg -9.652872 -36.703480 -33.864440
RightLeg 103.022174 -0.000000 -0.000000
RightFoot 27.350868 -29.106650 20.820294
RightToeBase 18.791481 -0.000000 -0.000000
2642
root 7.436664 33.331733 5.046170 6.434528 -13.636771 -21.412482
Spine 3.726749 14.311606 11.849748
Head 7.917478 -9.175869 10.175764
LeftShoulder -14.611236 1.627193 29.873387
LeftArm -5.140011 -4.946369 -82.432939
LeftForeArm -20.060044 -0.000000 123.865054
LeftHand 10.657764 -0.000000 -24.646247
LeftHandThumb1 -26.253704 0.000000 33.147579
RightShoulder -18.418943 -19.140254 -20.538770
RightArm 7.294017 -11.971040 84.567282
RightForeArm -13.172633 -0.000000 6.676749
RightHand 19.608191 -0.000000 6.643294
RightHandThumb1 -24.326973 -0.000000 -32.862282
LeftUpLeg 7.828952 8.753207 10.508251
LeftLeg -4.845054 -0.000000 0.000000
LeftFoot -20.291025 24.042633 -15.843552
LeftToeBase 18.637180 -0.000000 -0.000000
RightUpLeg -10.013174 -37.347077 -33.493299
RightLeg 102.806887 -0.000000 -0.000000
RightFoot 27.501982 -29.133094 20.696471
RightToeBase 17.808551 -0.000000 -0.000000
2643
root 7.448430 33.327375 5.034851 6.507343 -13.859083 -21.387845
Spine 3.738438 14.332989 11.709815
Head 7.928009 -9.018558 10.075177
LeftShoulder -14.605028 1.607762 29.880606
LeftArm -5.195142 -4.910339 -82.424214
LeftForeArm -20.165215 -0.000000 124.012119
LeftHand 10.673423 -0.000000 -24.718778
LeftHandThumb1 -26.253704 0.000000 33.147579
RightShoulder -18.407245 -19.092046 -20.583221
RightArm 7.338284 -12.032614 84.638644
RightForeArm -13.189283 -0.000000 6.649603
RightHand 19.643836 0.000000 6.634605
RightHandThumb1 -24.326973 -0.000000 -32.862282
LeftUpLeg 7.801655 8.919197 10.441418
LeftLeg -4.841358 -0.000000 0.000000
LeftFoot -20.344393 24.075235 -15.944879
LeftToeBase 18.276607 -0.000000 -0.000000
RightUpLeg -10.425954 -37.943838 -33.170639
RightLeg 102.614732 -0.000000 -0.000000
RightFoot 27.590484 -29.077771 20.737936
RightToeBase 17.638332 -0.000000 -0.000000
2644
root 7.459581 33.321646 5.025645 6.553515 -14.055934 -21.356439
Spine 3.771861 14.316759 11.568523
Head 7.914668 -8.815668 10.002955
LeftShoulder -14.606030 1.679776 29.885019
LeftArm -5.138084 -4.797268 -82.418130
LeftForeArm -20.132925 -0.000000 124.155555
LeftHand 10.664153 0.000000 -24.706978
LeftHandThumb1 -26.253704 0.000000 33.147579
RightShoulder -18.365956 -19.028291 -20.641677
RightArm 7.335154 -12.044871 84.719356
RightForeArm -13.201928 -0.000000 6.655949
RightHand 19.740962 -0.000000 6.347241
RightHandThumb1 -24.326973 -0.000000 -32.862282
LeftUpLeg 7.807010 9.087072 10.376497
LeftLeg -4.845537 -0.000000 0.000000
LeftFoot -20.395628 23.997056 -16.039583
LeftToeBase 18.184602 -0.000000 -0.000000
RightUpLeg -10.746305 -38.536435 -32.917545
RightLeg 102.413118 -0.000000 -0.000000
RightFoot 27.508914 -28.935701 20.860245
RightToeBase 17.820740 -0.000000 -0.000000
2645
root 7.474896 33.315176 5.005716 6.650009 -14.268126 -21.313897
Spine 3.787403 14.307291 11.395494
Head 7.846528 -8.591263 9.954873
LeftShoulder -14.635056 1.726158 29.922393
LeftArm -5.078369 -4.658581 -82.458601
LeftForeArm -20.083308 -0.000000 124.297162
LeftHand 10.685062 0.000000 -24.654927
LeftHandThumb1 -26.253704 0.000000 33.147579
RightShoulder -18.334026 -18.958506 -20.685114
RightArm 7.382872 -12.120964 84.770147
RightForeArm -13.157553 -0.000000 6.612505
RightHand 19.825574 0.000000 6.393633
RightHandThumb1 -24.326973 -0.000000 -32.862282
LeftUpLeg 7.715298 9.248130 10.273072
LeftLeg -4.833447 -0.000000 0.000000
LeftFoot -20.431339 24.042519 -16.098868
LeftToeBase 18.342444 -0.000000 -0.000000
RightUpLeg -11.219893 -39.102652 -32.577565
RightLeg 102.252901 -0.000000 -0.000000
RightFoot 26.999313 -29.126560 21.552893
RightToeBase 19.316746 -0.000000 -0.000000
